<?xml version="1.0" encoding="UTF-8"?>
<!DOCTYPE svg PUBLIC "-//W3C//DTD SVG 1.1//EN" "http://www.w3.org/Graphics/SVG/1.1/DTD/svg11.dtd">
<!-- Creator: CorelDRAW 2020 (64-Bit) -->
<svg xmlns="http://www.w3.org/2000/svg" xml:space="preserve" width="3.75in" height="4.79166in" version="1.1" style="shape-rendering:geometricPrecision; text-rendering:geometricPrecision; image-rendering:optimizeQuality; fill-rule:evenodd; clip-rule:evenodd"
viewBox="0 0 3750 4791.66"
 xmlns:xlink="http://www.w3.org/1999/xlink"
 xmlns:xodm="http://www.corel.com/coreldraw/odm/2003">
 <defs>
  <style type="text/css">
   <![CDATA[
    .fil0 {fill:black}
   ]]>
  </style>
 </defs>
 <g id="Layer_x0020_1">
  <metadata id="CorelCorpID_0Corel-Layer"/>
  <path class="fil0" d="M1465.92 1347.98c-334.77,521.18 -132.04,1672.72 209.79,2127.76 106.94,83.11 165.51,146.85 294.16,189.94 174.65,37.64 445.53,-5.37 485.37,-210.81 -66.01,-91.03 -120.39,-338.84 -191.45,-461.36 -73.29,-121.93 -356.05,59.95 -436.26,-6.26 -203.61,-209.71 -219.91,-822.09 -152.91,-1089.53 3.07,-17.88 18.41,-37.86 35.46,-41.26 72.59,-39.36 266.35,0.21 353.67,-44.19 33.65,-17.11 39.07,-45.31 46.08,-78.32 -1.29,-82.19 90.38,-461.86 46.45,-523.48 -253.31,-195.15 -506.63,-67.3 -690.35,137.52z"/>
 </g>
</svg>
